<?xml version="1.0" encoding="UTF-8"?>
<svg xmlns="http://www.w3.org/2000/svg" xmlns:xlink="http://www.w3.org/1999/xlink" width="32px" height="28px" viewBox="0 0 28 28" version="1.1">
<g id="surface1">
<path style=" stroke:none;fill-rule:nonzero;fill:rgb(0%,0%,0%);fill-opacity:1;" d="M 14 28 C 6.265625 28 0 21.734375 0 14 C 0 6.265625 6.265625 0 14 0 C 21.734375 0 28 6.265625 28 14 C 28 21.734375 21.734375 28 14 28 Z M 12.6875 14 C 12.6875 14.4375 12.90625 14.847656 13.273438 15.042969 L 18.523438 18.542969 C 19.125 18.992188 19.9375 18.828125 20.292969 18.226562 C 20.742188 17.625 20.578125 16.8125 19.976562 16.40625 L 15.3125 13.300781 L 15.3125 6.5625 C 15.3125 5.835938 14.726562 5.25 13.949219 5.25 C 13.273438 5.25 12.636719 5.835938 12.636719 6.5625 Z M 12.6875 14 "/>
</g>
</svg>
