<?xml version="1.0" encoding="UTF-8"?>
<svg xmlns="http://www.w3.org/2000/svg" xmlns:xlink="http://www.w3.org/1999/xlink" width="32px" height="28px" viewBox="0 0 28 28" version="1.1">
<g id="surface1">
<path style=" stroke:none;fill-rule:nonzero;fill:rgb(0%,0%,0%);fill-opacity:1;" d="M 25.375 3.5 C 26.824219 3.5 28 4.675781 28 6.125 C 28 6.949219 27.613281 7.726562 26.949219 8.226562 L 15.050781 17.148438 C 14.425781 17.613281 13.574219 17.613281 12.949219 17.148438 L 1.050781 8.226562 C 0.390625 7.726562 0 6.949219 0 6.125 C 0 4.675781 1.175781 3.5 2.625 3.5 Z M 11.898438 18.550781 C 13.148438 19.484375 14.851562 19.484375 16.101562 18.550781 L 28 9.625 L 28 21 C 28 22.929688 26.429688 24.5 24.5 24.5 L 3.5 24.5 C 1.566406 24.5 0 22.929688 0 21 L 0 9.625 Z M 11.898438 18.550781 "/>
</g>
</svg>
