<?xml version="1.0" encoding="UTF-8"?>
<svg xmlns="http://www.w3.org/2000/svg" xmlns:xlink="http://www.w3.org/1999/xlink" width="32px" height="28px" viewBox="0 0 31 28" version="1.1">
<g id="surface1">
<path style=" stroke:none;fill-rule:nonzero;fill:rgb(0%,0%,0%);fill-opacity:1;" d="M 14.703125 17.011719 C 12.976562 14.871094 8.992188 9.546875 8.992188 6.5625 C 8.992188 2.9375 11.933594 0 15.453125 0 C 19.066406 0 21.957031 2.9375 21.957031 6.5625 C 21.957031 9.546875 18.023438 14.871094 16.296875 17.011719 C 15.882812 17.585938 15.117188 17.585938 14.703125 17.011719 Z M 22.390625 27.507812 L 22.390625 10.960938 C 22.578125 10.582031 22.75 10.210938 22.90625 9.832031 C 22.933594 9.765625 22.960938 9.703125 22.984375 9.628906 L 29.230469 7.09375 C 30.078125 6.75 31 7.382812 31 8.3125 L 31 23.121094 C 31 23.65625 30.675781 24.140625 30.1875 24.339844 Z M 0.8125 10.242188 L 7.40625 7.5625 C 7.535156 8.339844 7.796875 9.109375 8.09375 9.832031 C 8.25 10.210938 8.421875 10.582031 8.609375 10.960938 L 8.609375 24.707031 L 1.769531 27.492188 C 0.921875 27.785156 0 27.203125 0 26.273438 L 0 11.460938 C 0 10.925781 0.320312 10.394531 0.8125 10.242188 Z M 20.667969 27.578125 L 10.285156 24.578125 L 10.285156 13.945312 C 11.4375 15.65625 12.609375 17.203125 13.359375 18.105469 C 14.460938 19.554688 16.539062 19.554688 17.640625 18.105469 C 18.390625 17.203125 19.5625 15.65625 20.667969 13.945312 Z M 20.667969 27.578125 "/>
</g>
</svg>
