<?xml version="1.0" encoding="UTF-8"?>
<svg xmlns="http://www.w3.org/2000/svg" xmlns:xlink="http://www.w3.org/1999/xlink" width="32px" height="28px" viewBox="0 0 28 28" version="1.1">
<g id="surface1">
<path style=" stroke:none;fill-rule:nonzero;fill:rgb(0%,0%,0%);fill-opacity:1;" d="M 27.957031 21.164062 L 26.683594 26.675781 C 26.507812 27.457031 25.820312 28 25.019531 28 C 11.222656 28 0 16.777344 0 2.980469 C 0 2.179688 0.546875 1.492188 1.324219 1.316406 L 6.835938 0.0429688 C 7.640625 -0.140625 8.460938 0.273438 8.792969 1.035156 L 11.335938 6.96875 C 11.636719 7.667969 11.433594 8.480469 10.847656 8.960938 L 7.902344 11.324219 C 9.761719 15.109375 12.839844 18.1875 16.625 20.046875 L 19.035156 17.105469 C 19.511719 16.515625 20.332031 16.3125 21.03125 16.617188 L 26.964844 19.160156 C 27.675781 19.535156 28.140625 20.367188 27.957031 21.164062 Z M 27.957031 21.164062 "/>
</g>
</svg>
